<svg width="20" height="20" viewBox="0 0 24 24" fill="none" xmlns="http://www.w3.org/2000/svg">
<g id="Frame" clip-path="url(#clip0_2549_5778)">
<path id="Vector" d="M23.5078 12.2247C23.5078 11.2414 23.4295 10.5239 23.2598 9.77979H12.2295V14.2178H18.7041C18.5736 15.3207 17.8687 16.9816 16.3022 18.0977L16.2802 18.2463L19.7678 20.9965L20.0095 21.021C22.2285 18.9349 23.5078 15.8654 23.5078 12.2247" fill="#4285F4"/>
<path id="Vector_2" d="M12.2296 23.9173C15.4016 23.9173 18.0645 22.8543 20.0095 21.0207L16.3023 18.0973C15.3102 18.8016 13.9787 19.2932 12.2296 19.2932C9.1228 19.2932 6.48598 17.2071 5.54603 14.3237L5.40825 14.3356L1.7818 17.1925L1.73438 17.3267C3.6663 21.2332 7.63462 23.9173 12.2296 23.9173Z" fill="#34A853"/>
<path id="Vector_3" d="M5.54621 14.3238C5.2982 13.5797 5.15466 12.7824 5.15466 11.9586C5.15466 11.1347 5.2982 10.3375 5.53316 9.59342L5.52659 9.43494L1.8547 6.53223L1.73457 6.59039C0.938328 8.21149 0.481445 10.0319 0.481445 11.9586C0.481445 13.8853 0.938328 15.7056 1.73457 17.3267L5.54621 14.3238" fill="#FBBC05"/>
<path id="Vector_4" d="M12.2295 4.62403C14.4356 4.62403 15.9237 5.59401 16.7722 6.40461L20.0878 3.10928C18.0515 1.1826 15.4015 0 12.2295 0C7.63462 0 3.6663 2.68406 1.73438 6.59056L5.53297 9.59359C6.48597 6.7102 9.12279 4.62403 12.2295 4.62403" fill="#EB4335"/>
</g>
<defs>
<clipPath id="clip0_2549_5778">
<rect width="23.04" height="24" fill="white" transform="translate(0.480469)"/>
</clipPath>
</defs>
</svg>
